<svg xmlns="http://www.w3.org/2000/svg" width="32" height="32" viewBox="0 0 32 32" fill="none">
  <rect width="32" height="32" rx="8" fill="#4f9cf9"/>
  <g stroke="#0a0c10" stroke-width="2.5" stroke-linecap="round" stroke-linejoin="round" fill="none">
    <path d="M7 12V9.5A2.5 2.5 0 0 1 9.5 7H12"/>
    <path d="M20 7h2.5A2.5 2.5 0 0 1 25 9.5V12"/>
    <path d="M25 20v2.5A2.5 2.5 0 0 1 22.5 25H20"/>
    <path d="M12 25H9.5A2.5 2.5 0 0 1 7 22.5V20"/>
    <g stroke-width="2">
      <path d="M14 12.5v7"/>
      <path d="M18 12.5v7"/>
      <path d="M12.5 14.75h7"/>
      <path d="M12.5 17.25h7"/>
    </g>
  </g>
</svg>
